<svg xmlns="http://www.w3.org/2000/svg" id="Group_4371" data-name="Group 4371" width="68.366" height="62.435" viewBox="0 0 68.366 62.435"><g id="Group_4342" data-name="Group 4342" transform="translate(0 0)"><path id="Path_1092" data-name="Path 1092" d="M65.744,11.518a8.491,8.491,0,0,0-1.764-.081c-.21-.007-.306-.024-.224-.283.168-.534.3-1.081.442-1.621a3.018,3.018,0,0,0-.8-2.856,3.057,3.057,0,0,0-2.564-1.12c-.819.054-.762.127-.759-.763a4.793,4.793,0,0,0-.473-2.45A4.307,4.307,0,0,0,55.563,0Q42.82.022,30.076.006H21.215Q12.839.006,4.462,0A4.221,4.221,0,0,0,2.506.4a4.322,4.322,0,0,0-2.5,4.14Q0,13.575,0,22.6,0,32.943,0,43.282C0,44.333.394,45,1.674,44.951c1.391-.053,2.785-.012,4.177-.012,2.715,0,5.429.007,8.144-.008.365,0,.5.113.518.469.021.42.093.837.142,1.256a1.209,1.209,0,0,0,.711,1.007,5.85,5.85,0,0,0,1.641.332c1.228.23,2.465.406,3.7.619.334.058.4.251.193.528q-1.406,1.927-2.818,3.848a1.294,1.294,0,0,0-.023,1.832,18.574,18.574,0,0,0,4.158,4.11,1.2,1.2,0,0,0,1.446.009c.264-.182.521-.374.78-.563q1.6-1.173,3.208-2.346c.345-.251.616-.2.667.132.184,1.193.354,2.388.535,3.582a14.816,14.816,0,0,0,.274,1.574,1.372,1.372,0,0,0,1.341.964,23.568,23.568,0,0,0,5.387,0,1.446,1.446,0,0,0,1.273-.823,2.9,2.9,0,0,0,.126-.744c.245-1.425.472-2.853.7-4.28.032-.2-.034-.436.218-.547.235-.1.368.1.513.2,1.314.943,2.617,1.9,3.928,2.847a1.189,1.189,0,0,0,1.479-.015,18.324,18.324,0,0,0,4.126-4.08,1.3,1.3,0,0,0-.021-1.861q-1.421-1.914-2.82-3.846c-.122-.169-.164-.343-.014-.445l4.9-.817a1.448,1.448,0,0,0,1.369-1.1q.083-.605.147-1.213c.065-.615.062-.616.661-.616,2.1,0,4.192-.007,6.287,0a1.257,1.257,0,0,0,1.328-.978c.084-.368.216-.724.321-1.087.511-1.762,1.007-3.528,1.533-5.285.369-1.233.675-2.486,1.1-3.7.083-.237.115-.506-.3-.4-.092.023-.21.04-.228-.106-.015-.128.076-.174.183-.182a.456.456,0,0,0,.461-.5c0-.054.009-.138.043-.157.524-.3.46-.877.6-1.332.505-1.616.938-3.255,1.407-4.882.371-1.291.761-2.577,1.133-3.867.633-2.192,1.23-4.4,1.894-6.578a3.328,3.328,0,0,0-2.448-4.37M2.494,34.312V31.6l0,0c0-.9,0-1.8,0-2.706,0-8.117.018-16.233-.019-24.349a2.031,2.031,0,0,1,2.13-2.137q25.425.031,50.85,0a2.04,2.04,0,0,1,2.193,2.223c-.046.936-.008.938-.945.938H32.227q-11.055,0-22.111-.009A4.513,4.513,0,0,0,6.7,6.854a3.2,3.2,0,0,0-.662.907c-.048.106-.145.248.06.3.171.044.3,0,.333-.208.017-.117-.1-.34.134-.321s.178.252.167.409c-.025.373-.27.576-.636.456-.327-.107-.4.051-.449.288-.121.633-.235,1.267-.34,1.9q-.368,2.244-.723,4.489-.346,2.184-.681,4.369-.215,1.395-.42,2.791a1.17,1.17,0,0,0,1,1.436,1.159,1.159,0,0,0,1.36-1c.261-1.478.482-2.964.722-4.446.227-1.4.461-2.8.684-4.2q.3-1.871.581-3.744A2.4,2.4,0,0,1,8.84,8.274,1.909,1.909,0,0,1,9.8,8.019l19.265.009v0h3.794c.2,0,.4.005.6,0h1.817c.058,0,.121.007.189.007q12.027-.02,24.053-.019a1.145,1.145,0,0,0,.731-.248c.26-.192.269.39.589.254.148-.063.378.064.4-.288a4.515,4.515,0,0,1,.748,1.241c.035.111.074.221-.024.314a3.543,3.543,0,0,0-.721,1.761c-.076.252-.172.405-.485.389a3.086,3.086,0,0,0-1.294.1.776.776,0,0,1-.454-.044,1.093,1.093,0,0,0-.964.061.345.345,0,0,1-.326,0,1.591,1.591,0,0,0-1.4.015.286.286,0,0,1-.243,0,1.89,1.89,0,0,0-1.109-.144c-2.883-.006-5.768.036-8.65-.025a3.73,3.73,0,0,0-2.46.834c-2.394,1.8-4.824,3.562-7.234,5.346a.968.968,0,0,1-.63.162q-11.711,0-23.42,0a4.213,4.213,0,0,0-4.153,2.761c-.507,1.2-.906,2.436-1.351,3.658C6.51,25.7,5.96,27.223,5.4,28.746l-.187.507L2.494,36.47v-.88a1.9,1.9,0,0,0,0-.224v-.832a.407.407,0,0,0,0-.222m46.841,11.12h0l-3.866.689a.538.538,0,0,0-.233.012c-.4.077-.8.139-1.2.242a1.051,1.051,0,0,0-.721.709,12.667,12.667,0,0,1-.583,1.392,1.234,1.234,0,0,0,.137,1.347c.929,1.29,1.857,2.581,2.8,3.857a.308.308,0,0,1-.018.466,23.241,23.241,0,0,1-1.985,2.02c-.258.237-.451.2-.717.008-1.144-.844-2.327-1.638-3.448-2.511a1.5,1.5,0,0,0-1.879-.215,5.616,5.616,0,0,1-1.043.433,1.3,1.3,0,0,0-.9,1.15c-.241,1.524-.5,3.046-.734,4.571-.037.242-.126.338-.36.362a13.792,13.792,0,0,1-2.946,0,.308.308,0,0,1-.317-.307c-.144-.93-.311-1.855-.46-2.784-.1-.651-.173-1.308-.3-1.955A1.249,1.249,0,0,0,29.75,53.9c-.5-.182-.986-.391-1.468-.617a1.041,1.041,0,0,0-1.081.091c-1.268.911-2.544,1.812-3.8,2.746a.591.591,0,0,1-.912-.051c-.654-.6-1.272-1.238-1.863-1.9a.33.33,0,0,1-.017-.5c.948-1.276,1.877-2.567,2.808-3.855a1.189,1.189,0,0,0,.182-1.195c-.214-.532-.457-1.051-.669-1.585a1.106,1.106,0,0,0-.876-.7c-1.531-.287-3.071-.52-4.614-.73-.341-.046-.5-.135-.529-.53a19.1,19.1,0,0,1,.011-2.78c.018-.239.076-.351.322-.387,1.027-.153,2.055-.307,3.077-.488a18.556,18.556,0,0,0,1.865-.32,1.1,1.1,0,0,0,.769-.714c.173-.49.392-.956.6-1.428a1.261,1.261,0,0,0-.171-1.344c-.919-1.263-1.823-2.537-2.759-3.788a.371.371,0,0,1,.034-.568,24.012,24.012,0,0,1,1.979-1.985.429.429,0,0,1,.645-.008c1.258.926,2.53,1.831,3.793,2.749a1.324,1.324,0,0,0,1.425.088c.395-.177.786-.369,1.194-.512a1.362,1.362,0,0,0,.913-1.23c.229-1.5.485-2.992.712-4.49.041-.271.168-.336.411-.36a14.189,14.189,0,0,1,2.821,0,.373.373,0,0,1,.4.374c.229,1.526.5,3.046.717,4.573a1.433,1.433,0,0,0,1.12,1.211,8.779,8.779,0,0,1,1,.439,1.31,1.31,0,0,0,1.427-.082c1.252-.911,2.512-1.81,3.748-2.741a.455.455,0,0,1,.7.023A21.2,21.2,0,0,1,45.643,33.3a.324.324,0,0,1,.023.495c-.931,1.254-1.834,2.529-2.755,3.79a1.306,1.306,0,0,0-.153,1.458,12.935,12.935,0,0,1,.565,1.354,1.178,1.178,0,0,0,.98.764c1.4.225,2.8.441,4.2.659.069.011.141.009.21.019.433.064.575.088.622.306ZM51.657,42.9v-.638l.143.148a.733.733,0,0,1-.143.49M62.646,31.855c-.311.032-.428.215-.438.509,0,.11-.052.226-.205.214-.177-.014-.12-.154-.134-.246a.766.766,0,0,1,.683-.784c.1-.006.241-.051.269.116.021.128-.071.18-.174.19m3.106-16.333c-.719,2.5-1.46,5-2.187,7.5-.677,2.325-1.343,4.654-2.017,6.98q-1.139,3.932-2.282,7.863c-.416,1.439-.829,2.878-1.229,4.321-.078.28-.216.36-.5.358-1.772-.014-3.544-.007-5.316-.008-.146,0-.305.037-.409-.113a.731.731,0,0,0-.152-.465v-.906a.38.38,0,0,0-.018-.087.52.52,0,0,0,0-.212,1.207,1.207,0,0,0-.8-.987,18.817,18.817,0,0,0-2.522-.462c-.881-.17-1.775-.276-2.661-.421-.423-.069-.5-.266-.249-.6q1.424-1.939,2.85-3.878a1.279,1.279,0,0,0,.024-1.7A19.755,19.755,0,0,0,44.11,28.56a1.345,1.345,0,0,0-1.528-.011q-1.9,1.375-3.8,2.746a3.441,3.441,0,0,1-.337.242c-.274.152-.432.024-.475-.248q-.4-2.495-.777-4.992a1.265,1.265,0,0,0-1.088-1.064,17.081,17.081,0,0,0-3.824-.2,17.562,17.562,0,0,0-1.931.164,1.325,1.325,0,0,0-1.278,1.3c-.212,1.387-.455,2.77-.682,4.155-.032.193-.045.39-.072.585-.049.35-.255.452-.547.244C26.616,30.66,25.468,29.82,24.307,29a3.153,3.153,0,0,0-1.059-.649,1.238,1.238,0,0,0-1.071.209,19.213,19.213,0,0,0-4.15,4.116A1.264,1.264,0,0,0,18,34.369c.94,1.3,1.892,2.59,2.843,3.882.29.395.234.557-.252.637-1.579.257-3.16.5-4.738.766a1.261,1.261,0,0,0-1.2,1.316c-.044.4-.111.807-.149,1.213-.024.257-.126.359-.4.359q-5.359-.012-10.717,0c-.289,0-.4-.023-.267-.375.45-1.207.887-2.418,1.323-3.63l1.305-3.585c.155-.419.307-.838.467-1.254a1.532,1.532,0,0,0,.084-.258l.46-1.263a.14.14,0,0,0,.046-.127l.153-.419a.59.59,0,0,0,.066-.162q.44-1.213.876-2.426l.111-.3H8q.678-1.879,1.357-3.758c.428-1.182.84-2.371,1.306-3.539a1.906,1.906,0,0,1,1.906-1.26h7.511q8.2,0,16.408.007a2.167,2.167,0,0,0,1.363-.437c2.541-1.889,5.089-3.768,7.626-5.661a1.024,1.024,0,0,1,.663-.2c2.068,0,4.137.043,6.2-.023.763-.024,1.52.067,2.276.019,1.686-.107,3.369.046,5.055.011,1.7-.036,3.4-.009,5.105-.007.7,0,1.026.2,1.14.691a1.857,1.857,0,0,1-.17.941" transform="translate(0 0)" fill="#fff"></path><path id="Path_1093" data-name="Path 1093" d="M36.186,34.97q5.339,0,10.677,0v0H56.02c.6,0,1.21.006,1.815,0a1.163,1.163,0,0,0,1.1-.624,1.238,1.238,0,0,0-1.213-1.827q-10.824,0-21.649,0a2.53,2.53,0,0,0-.253.006,1.227,1.227,0,0,0-.983,1.8,1.3,1.3,0,0,0,1.344.65" transform="translate(-22.496 -21.078)" fill="#fff"></path><path id="Path_1094" data-name="Path 1094" d="M83.54,107.832a5.8,5.8,0,1,0,5.817,5.787,5.764,5.764,0,0,0-5.817-5.787m.045,9.152a3.342,3.342,0,1,1,3.3-3.412,3.331,3.331,0,0,1-3.3,3.412" transform="translate(-50.415 -69.909)" fill="#fff"></path></g></svg>