<svg xmlns="http://www.w3.org/2000/svg" width="81.559" height="64.293" viewBox="0 0 81.559 64.293">
  <g id="Group_4367" data-name="Group 4367" transform="translate(0.875 0.875)">
    <g id="Group_4333" data-name="Group 4333" transform="translate(0.7 0.7)">
      <path id="Path_1068" data-name="Path 1068" d="M56.056,15.753a29.585,29.585,0,1,1-40.3-11.228A29.583,29.583,0,0,1,56.056,15.753Z" transform="translate(-0.7 -0.7)" fill="none" stroke="#fff" stroke-width="3"/>
      <path id="Path_1069" data-name="Path 1069" d="M39.611,25.189l17.66,10.437a6.5,6.5,0,1,1-6.611,11.189L33,36.38" transform="translate(18.001 13.479)" fill="none" stroke="#fff" stroke-width="3"/>
      <line id="Line_56" data-name="Line 56" y1="11.292" x2="6.671" transform="translate(59.959 43.86)" fill="none" stroke="#fff" stroke-width="3"/>
      <rect id="Rectangle_581" data-name="Rectangle 581" width="6.007" height="6.883" transform="translate(15.646 31.827)" fill="none" stroke="#fff" stroke-width="3"/>
      <rect id="Rectangle_582" data-name="Rectangle 582" width="6.007" height="12.411" transform="translate(25.641 26.299)" fill="none" stroke="#fff" stroke-width="3"/>
      <rect id="Rectangle_583" data-name="Rectangle 583" width="6.007" height="17.761" transform="translate(35.307 20.95)" fill="none" stroke="#fff" stroke-width="3"/>
      <path id="Path_1070" data-name="Path 1070" d="M10.911,20.976l4.985-6.27H23.45L28.78,8.085" transform="translate(5.212 3.575)" fill="none" stroke="#fff" stroke-width="3"/>
      <line id="Line_57" data-name="Line 57" x2="25.667" transform="translate(15.647 38.711)" fill="none" stroke="#fff" stroke-width="3"/>
    </g>
  </g>
</svg>
