<svg xmlns="http://www.w3.org/2000/svg" width="70.722" height="58.415" viewBox="0 0 70.722 58.415"><g id="Group_4366" data-name="Group 4366" transform="translate(0.7 0.7)"><g id="Group_4314" data-name="Group 4314" transform="translate(0.8 0.8)"><path id="Path_1033" data-name="Path 1033" d="M56.778,11.813h-13.2L41.1,16.849l-1.831-5.036a5.223,5.223,0,0,1-5.222-5.222V6.021A5.222,5.222,0,0,1,39.267.8H56.778A5.222,5.222,0,0,1,62,6.021v.569A5.223,5.223,0,0,1,56.778,11.813Z" transform="translate(5.721 -0.8)" fill="none" stroke="#fff" stroke-linejoin="round" stroke-width="3"></path><path id="Path_1034" data-name="Path 1034" d="M6.022,30.207h13.2L21.7,35.243l1.831-5.036a5.223,5.223,0,0,0,5.222-5.222v-.569a5.222,5.222,0,0,0-5.222-5.221H6.022A5.222,5.222,0,0,0,.8,24.415v.569A5.223,5.223,0,0,0,6.022,30.207Z" transform="translate(-0.8 2.808)" fill="none" stroke="#fff" stroke-linejoin="round" stroke-width="3"></path><path id="Path_1035" data-name="Path 1035" d="M61.246,13.037c0,4.23-10.915,7.659-24.38,7.659s-24.381-3.429-24.381-7.659c0-3.83,8.95-7,20.636-7.569" transform="translate(1.492 0.116)" fill="none" stroke="#fff" stroke-linejoin="round" stroke-width="3"></path><path id="Path_1036" data-name="Path 1036" d="M58.353,21.438c0,4.23-10.915,7.659-24.38,7.659-2.338,0-4.6-.1-6.739-.3" transform="translate(4.385 3.248)" fill="none" stroke="#fff" stroke-linejoin="round" stroke-width="3"></path><path id="Path_1037" data-name="Path 1037" d="M61.246,31.081c0,4.23-10.915,7.659-24.38,7.659s-24.381-3.429-24.381-7.659" transform="translate(1.492 5.14)" fill="none" stroke="#fff" stroke-linejoin="round" stroke-width="3"></path><path id="Path_1038" data-name="Path 1038" d="M12.485,34.864V46.4c0,4.23,10.915,7.659,24.38,7.659S61.246,50.628,61.246,46.4V11.8" transform="translate(1.492 1.357)" fill="none" stroke="#fff" stroke-linejoin="round" stroke-width="3"></path><line id="Line_41" data-name="Line 41" x2="5.599" transform="translate(45.496 5.583)" fill="none" stroke="#fff" stroke-linejoin="round" stroke-width="3"></line><line id="Line_42" data-name="Line 42" x2="5.599" transform="translate(54.582 5.583)" fill="none" stroke="#fff" stroke-linejoin="round" stroke-width="3"></line><line id="Line_43" data-name="Line 43" x2="5.599" transform="translate(6.317 27.348)" fill="none" stroke="#fff" stroke-linejoin="round" stroke-width="3"></line><line id="Line_44" data-name="Line 44" x2="5.599" transform="translate(15.402 27.348)" fill="none" stroke="#fff" stroke-linejoin="round" stroke-width="3"></line><line id="Line_45" data-name="Line 45" y2="5.628" transform="translate(13.978 13.152)" fill="none" stroke="#fff" stroke-linejoin="round" stroke-width="3"></line></g></g></svg>