<svg xmlns="http://www.w3.org/2000/svg" width="87.154" height="71.86" viewBox="0 0 87.154 71.86">
  <g id="Group_4313" data-name="Group 4313" transform="translate(0.7 0.7)">
    <g id="Group_4314" data-name="Group 4314" transform="translate(0.8 0.8)">
      <path id="Path_1033" data-name="Path 1033" d="M62.294,14.485H45.886L42.81,20.743l-2.276-6.258A6.49,6.49,0,0,1,34.045,8V7.288A6.489,6.489,0,0,1,40.535.8H62.294a6.489,6.489,0,0,1,6.49,6.488V8A6.49,6.49,0,0,1,62.294,14.485Z" transform="translate(15.37 -0.8)" fill="none" stroke="#01963e" stroke-linejoin="round" stroke-width="3"/>
      <path id="Path_1034" data-name="Path 1034" d="M7.29,32.879H23.7l3.075,6.258,2.276-6.258a6.49,6.49,0,0,0,6.49-6.49v-.708a6.489,6.489,0,0,0-6.49-6.488H7.29A6.489,6.489,0,0,0,.8,25.682v.708A6.49,6.49,0,0,0,7.29,32.879Z" transform="translate(-0.8 8.147)" fill="none" stroke="#01963e" stroke-linejoin="round" stroke-width="3"/>
      <path id="Path_1035" data-name="Path 1035" d="M73.078,14.874c0,5.256-13.563,9.517-30.3,9.517s-30.3-4.261-30.3-9.517c0-4.759,11.121-8.7,25.643-9.406" transform="translate(4.884 1.47)" fill="none" stroke="#01963e" stroke-linejoin="round" stroke-width="3"/>
      <path id="Path_1036" data-name="Path 1036" d="M65.9,21.438c0,5.256-13.563,9.517-30.3,9.517-2.906,0-5.715-.128-8.374-.369" transform="translate(12.057 9.238)" fill="none" stroke="#01963e" stroke-linejoin="round" stroke-width="3"/>
      <path id="Path_1037" data-name="Path 1037" d="M73.078,31.081c0,5.256-13.563,9.517-30.3,9.517s-30.3-4.262-30.3-9.517" transform="translate(4.884 13.929)" fill="none" stroke="#01963e" stroke-linejoin="round" stroke-width="3"/>
      <path id="Path_1038" data-name="Path 1038" d="M12.485,40.461V54.794c0,5.256,13.563,9.517,30.3,9.517s30.3-4.261,30.3-9.517v-43" transform="translate(4.884 4.548)" fill="none" stroke="#01963e" stroke-linejoin="round" stroke-width="3"/>
      <line id="Line_41" data-name="Line 41" x2="6.958" transform="translate(56.536 6.938)" fill="none" stroke="#01963e" stroke-linejoin="round" stroke-width="3"/>
      <line id="Line_42" data-name="Line 42" x2="6.958" transform="translate(67.825 6.938)" fill="none" stroke="#01963e" stroke-linejoin="round" stroke-width="3"/>
      <line id="Line_43" data-name="Line 43" x2="6.958" transform="translate(7.85 33.984)" fill="none" stroke="#01963e" stroke-linejoin="round" stroke-width="3"/>
      <line id="Line_44" data-name="Line 44" x2="6.958" transform="translate(19.14 33.984)" fill="none" stroke="#01963e" stroke-linejoin="round" stroke-width="3"/>
      <line id="Line_45" data-name="Line 45" y2="6.993" transform="translate(17.369 16.344)" fill="none" stroke="#01963e" stroke-linejoin="round" stroke-width="3"/>
    </g>
  </g>
</svg>
