<svg xmlns="http://www.w3.org/2000/svg" width="75.865" height="65.705" viewBox="0 0 75.865 65.705"><g id="Group_4369" data-name="Group 4369" transform="translate(1 0.999)"><g id="Group_4336" data-name="Group 4336" transform="translate(0.5 0.501)"><path id="Path_1071" data-name="Path 1071" d="M53,23.645l.139-3.712A1.263,1.263,0,0,0,51.9,18.646l-4.539-.083a17.567,17.567,0,0,0-1.325-3.372L49.3,12.04a1.264,1.264,0,0,0,.033-1.787L44.077,4.8a1.263,1.263,0,0,0-1.785-.033L39.02,7.915A17.475,17.475,0,0,0,35.7,6.466l.083-4.539A1.263,1.263,0,0,0,34.545.64L26.967.5A1.263,1.263,0,0,0,25.68,1.74L25.6,6.278a17.431,17.431,0,0,0-3.37,1.327L19.074,4.335A1.263,1.263,0,0,0,17.289,4.3L11.83,9.561a1.263,1.263,0,0,0-.033,1.785l3.153,3.271a17.606,17.606,0,0,0-1.451,3.32l-4.539-.083a1.26,1.26,0,0,0-1.285,1.239l-.141,3.714" transform="translate(6.058 -0.501)" fill="none" stroke="#fff" stroke-width="3"></path><path id="Path_1072" data-name="Path 1072" d="M53,23.645l.139-3.712A1.263,1.263,0,0,0,51.9,18.646l-4.539-.083a17.567,17.567,0,0,0-1.325-3.372L49.3,12.04a1.264,1.264,0,0,0,.033-1.787L44.077,4.8a1.263,1.263,0,0,0-1.785-.033L39.02,7.915A17.475,17.475,0,0,0,35.7,6.466l.083-4.539A1.263,1.263,0,0,0,34.545.64L26.967.5A1.263,1.263,0,0,0,25.68,1.74L25.6,6.278a17.431,17.431,0,0,0-3.37,1.327L19.074,4.335A1.263,1.263,0,0,0,17.289,4.3L11.83,9.561a1.263,1.263,0,0,0-.033,1.785l3.153,3.271a17.606,17.606,0,0,0-1.451,3.32l-4.539-.083a1.26,1.26,0,0,0-1.285,1.239l-.141,3.714" transform="translate(6.058 -0.501)" fill="none" stroke="#fff" stroke-width="3"></path><path id="Path_1073" data-name="Path 1073" d="M23.6,13.87a8.377,8.377,0,1,1-8.392,8.363A8.377,8.377,0,0,1,23.6,13.87" transform="translate(13.214 11.962)" fill="none" stroke="#fff" stroke-width="3"></path><path id="Path_1074" data-name="Path 1074" d="M23.6,13.87a8.377,8.377,0,1,1-8.392,8.363A8.377,8.377,0,0,1,23.6,13.87Z" transform="translate(13.214 11.962)" fill="none" stroke="#fff" stroke-width="3"></path><path id="Path_1075" data-name="Path 1075" d="M13.788,17.381a10.722,10.722,0,1,1,21.443.039" transform="translate(11.887 5.258)" fill="none" stroke="#fff" stroke-width="3"></path><path id="Path_1076" data-name="Path 1076" d="M13.788,17.381a10.722,10.722,0,1,1,21.443.039" transform="translate(11.887 5.258)" fill="none" stroke="#fff" stroke-width="3"></path><path id="Path_1077" data-name="Path 1077" d="M44.523,41.593l0-4.852A11.611,11.611,0,0,0,32.936,25.107h0l-10.76-.019A11.614,11.614,0,0,0,10.542,36.679v5.107" transform="translate(8.861 22.419)" fill="none" stroke="#fff" stroke-width="3"></path><path id="Path_1078" data-name="Path 1078" d="M11.663,14.534a7.16,7.16,0,1,1-7.172,7.147,7.16,7.16,0,0,1,7.172-7.147" transform="translate(3.22 12.581)" fill="none" stroke="#fff" stroke-width="3"></path><path id="Path_1079" data-name="Path 1079" d="M11.663,14.534a7.16,7.16,0,1,1-7.172,7.147A7.16,7.16,0,0,1,11.663,14.534Z" transform="translate(3.22 12.581)" fill="none" stroke="#fff" stroke-width="3"></path><path id="Path_1080" data-name="Path 1080" d="M19.64,24.137h0l-9.2-.015A9.924,9.924,0,0,0,.5,34.028v0l0,1.059" transform="translate(-0.5 21.519)" fill="none" stroke="#fff" stroke-width="3"></path><path id="Path_1081" data-name="Path 1081" d="M33.956,14.313a7.16,7.16,0,1,0,7.172,7.147,7.16,7.16,0,0,0-7.172-7.147" transform="translate(24.025 12.375)" fill="none" stroke="#fff" stroke-width="3"></path><path id="Path_1082" data-name="Path 1082" d="M33.956,14.313a7.16,7.16,0,1,0,7.172,7.147A7.16,7.16,0,0,0,33.956,14.313Z" transform="translate(24.025 12.375)" fill="none" stroke="#fff" stroke-width="3"></path><path id="Path_1083" data-name="Path 1083" d="M28.3,23.916h0l9.2-.015a9.924,9.924,0,0,1,9.941,9.906v0l0,1.059" transform="translate(25.42 21.313)" fill="none" stroke="#fff" stroke-width="3"></path></g></g></svg>