<svg xmlns="http://www.w3.org/2000/svg" width="51.355" height="75.213" viewBox="0 0 51.355 75.213"><g id="Group_4370" data-name="Group 4370" transform="translate(0.745 0.744)"><g id="Group_4339" data-name="Group 4339" transform="translate(0.755 0.756)"><path id="Path_1084" data-name="Path 1084" d="M26.25,1.84C6.665,22.335,12.85,46.3,16.05,54.938A5.025,5.025,0,0,0,20.769,58.2H36.5a5.024,5.024,0,0,0,4.755-3.368c3-8.666,8.59-32.5-11.05-53A2.744,2.744,0,0,0,26.25,1.84Z" transform="translate(-4.375 -1)" fill="none" stroke="#fff" stroke-width="3"></path><path id="Path_1085" data-name="Path 1085" d="M56.163,58.609s8.343,5.982,8.4,21.851a.857.857,0,0,1-1.6.431c-1.837-3.194-5.3-7.9-9.962-8.461" transform="translate(-16.211 -17.851)" fill="none" stroke="#fff" stroke-width="3"></path><path id="Path_1086" data-name="Path 1086" d="M9.4,58.609S1.059,64.591,1,80.46a.857.857,0,0,0,1.6.431c1.837-3.194,5.3-7.9,9.962-8.461" transform="translate(-1 -17.851)" fill="none" stroke="#fff" stroke-width="3"></path><line id="Line_58" data-name="Line 58" y2="8.054" transform="translate(19.648 57.333)" fill="none" stroke="#fff" stroke-width="3"></line><line id="Line_59" data-name="Line 59" y2="8.746" transform="translate(28.22 56.813)" fill="none" stroke="#fff" stroke-width="3"></line><path id="Path_1087" data-name="Path 1087" d="M18.587,22.882s10.387,6.443,23.708,0" transform="translate(-6.144 -7.401)" fill="none" stroke="#fff" stroke-width="3"></path><path id="Path_1088" data-name="Path 1088" d="M54.673,102.256a7.082,7.082,0,0,0-10.745-6.072" transform="translate(-13.557 -28.543)" fill="none" stroke="#fff" stroke-width="3"></path><path id="Path_1089" data-name="Path 1089" d="M10.227,102.256a7.082,7.082,0,0,1,10.745-6.072" transform="translate(-3.699 -28.543)" fill="none" stroke="#fff" stroke-width="3"></path><path id="Path_1090" data-name="Path 1090" d="M36.925,41.665l-6.757,6.515h6.757l-6.757,6.168" transform="translate(-9.532 -12.895)" fill="none" stroke="#fff" stroke-width="3"></path><path id="Path_1091" data-name="Path 1091" d="M21.765,101.391a9.188,9.188,0,1,1,18.375,0" transform="translate(-7.074 -27.678)" fill="none" stroke="#fff" stroke-width="3"></path></g></g></svg>