<svg xmlns="http://www.w3.org/2000/svg" width="66.809" height="66.809" viewBox="0 0 66.809 66.809"><g id="Group_4368" data-name="Group 4368" transform="translate(-0.038 -0.038)"><g id="Group_4330" data-name="Group 4330" transform="translate(1.538 1.538)"><circle id="Ellipse_135" data-name="Ellipse 135" cx="31.904" cy="31.904" r="31.904" fill="none" stroke="#fff" stroke-width="3"></circle><circle id="Ellipse_136" data-name="Ellipse 136" cx="3.658" cy="3.658" r="3.658" transform="translate(13.167 27.713)" fill="none" stroke="#fff" stroke-width="3"></circle><circle id="Ellipse_137" data-name="Ellipse 137" cx="3.658" cy="3.658" r="3.658" transform="translate(43.726 28.246)" fill="none" stroke="#fff" stroke-width="3"></circle><circle id="Ellipse_138" data-name="Ellipse 138" cx="3.658" cy="3.658" r="3.658" transform="translate(9.509 15.401)" fill="none" stroke="#fff" stroke-width="3"></circle><path id="Path_1062" data-name="Path 1062" d="M37.066,2.808V17.73a3.614,3.614,0,0,1-3.615,3.614H27.313" transform="translate(-10.939 -2.285)" fill="none" stroke="#fff" stroke-width="3"></path><path id="Path_1063" data-name="Path 1063" d="M45.68,2.808V30.021a3.614,3.614,0,0,1-3.615,3.614H34.851" transform="translate(-13.601 -2.285)" fill="none" stroke="#fff" stroke-width="3"></path><path id="Path_1064" data-name="Path 1064" d="M52.229,82.934V54.3a3.713,3.713,0,0,1,3.615-3.8h7.215" transform="translate(-19.737 -19.125)" fill="none" stroke="#fff" stroke-width="3"></path><circle id="Ellipse_139" data-name="Ellipse 139" cx="3.658" cy="3.658" r="3.658" transform="translate(46.884 15.401)" fill="none" stroke="#fff" stroke-width="3"></circle><path id="Path_1065" data-name="Path 1065" d="M60.1,2.808V17.73a3.614,3.614,0,0,0,3.615,3.614H69.85" transform="translate(-22.516 -2.285)" fill="none" stroke="#fff" stroke-width="3"></path><circle id="Ellipse_140" data-name="Ellipse 140" cx="3.658" cy="3.658" r="3.658" transform="translate(9.559 41.614)" fill="none" stroke="#fff" stroke-width="3"></circle><path id="Path_1066" data-name="Path 1066" d="M37.143,90.523V75.6a3.614,3.614,0,0,0-3.615-3.614H27.39" transform="translate(-10.966 -26.715)" fill="none" stroke="#fff" stroke-width="3"></path><circle id="Ellipse_141" data-name="Ellipse 141" cx="3.658" cy="3.658" r="3.658" transform="translate(46.934 41.614)" fill="none" stroke="#fff" stroke-width="3"></circle><path id="Path_1067" data-name="Path 1067" d="M60.174,90.523V75.6a3.614,3.614,0,0,1,3.615-3.614h6.138" transform="translate(-22.543 -26.715)" fill="none" stroke="#fff" stroke-width="3"></path></g></g></svg>