<svg xmlns="http://www.w3.org/2000/svg" width="68.398" height="44.142" viewBox="0 0 68.398 44.142"><g id="Group_4380" data-name="Group 4380" transform="translate(0.019)"><g id="Group_4381" data-name="Group 4381"><circle id="Ellipse_145" data-name="Ellipse 145" cx="16.256" cy="16.256" r="16.256" transform="translate(17.888 10.63)" fill="none" stroke="#fff0a0" stroke-width="2"></circle><circle id="Ellipse_146" data-name="Ellipse 146" cx="5.242" cy="5.242" r="5.242" transform="translate(29.128 17.819)" fill="none" stroke="#fff0a0" stroke-width="2"></circle><path id="Path_1104" data-name="Path 1104" d="M44.775,39.273v-.618a7.265,7.265,0,0,0-7.265-7.267H30.777a7.266,7.266,0,0,0-7.266,7.266h0v.776" fill="none" stroke="#fff0a0" stroke-width="2"></path><path id="Path_1105" data-name="Path 1105" d="M25.978,9.393a8.393,8.393,0,1,1,16.786,0" fill="none" stroke="#fff0a0" stroke-width="2"></path><path id="Path_1106" data-name="Path 1106" d="M49.666,17.583a11.292,11.292,0,1,1,.227,18.758" fill="none" stroke="#fff0a0" stroke-width="2"></path><circle id="Ellipse_147" data-name="Ellipse 147" cx="3.641" cy="3.641" r="3.641" transform="translate(52.584 20.588)" fill="none" stroke="#fff0a0" stroke-width="2"></circle><path id="Path_1107" data-name="Path 1107" d="M63.453,35.49v-.43a5.047,5.047,0,0,0-5.047-5.047H53.73" fill="none" stroke="#fff0a0" stroke-width="2"></path><path id="Path_1108" data-name="Path 1108" d="M18.693,17.583a11.292,11.292,0,1,0-.227,18.758" fill="none" stroke="#fff0a0" stroke-width="2"></path><circle id="Ellipse_148" data-name="Ellipse 148" cx="3.641" cy="3.641" r="3.641" transform="translate(8.493 20.588)" fill="none" stroke="#fff0a0" stroke-width="2"></circle><path id="Path_1109" data-name="Path 1109" d="M4.905,35.49v-.43a5.047,5.047,0,0,1,5.047-5.047h4.676" fill="none" stroke="#fff0a0" stroke-width="2"></path></g></g></svg>