<svg xmlns="http://www.w3.org/2000/svg" width="100" height="100" viewBox="0 0 100 100"><g id="Group_4457" data-name="Group 4457" transform="translate(-191 -1074)"><circle id="Ellipse_123" data-name="Ellipse 123" cx="50" cy="50" r="50" transform="translate(191 1074)" fill="#429549"></circle><g id="Group_4323" data-name="Group 4323" transform="translate(206.69 1099.058)"><g id="Group_4324" data-name="Group 4324" transform="translate(1.5)"><line id="Line_46" data-name="Line 46" y1="12.236" transform="translate(7.438 33.659)" fill="none" stroke="#fff" stroke-linejoin="round" stroke-width="2"></line><circle id="Ellipse_127" data-name="Ellipse 127" cx="7.249" cy="7.249" r="7.249" transform="translate(8.196 5.021)" fill="none" stroke="#fff" stroke-linejoin="round" stroke-width="2"></circle><path id="Path_1055" data-name="Path 1055" d="M1.5,57.051V42.933a8.911,8.911,0,0,1,8.913-8.909h.007c2.472,0,4.637,0,5.194-.028,1.471-.064,6.259.255,10.665-3.13,3.03-2.327,5.305-8.1,6.431-11.474a2.986,2.986,0,0,1,5.738,1.63c-.007.029-.014.057-.021.085C34.4,36.61,25.9,38.594,25.9,38.594l.037,11.141a7.292,7.292,0,0,1-7.292,7.316Z" transform="translate(-1.5 -11.278)" fill="none" stroke="#fff" stroke-linejoin="round" stroke-width="2"></path><circle id="Ellipse_128" data-name="Ellipse 128" cx="7.249" cy="7.249" r="7.249" transform="translate(45.501 5.021)" fill="none" stroke="#fff" stroke-linejoin="round" stroke-width="2"></circle><path id="Path_1056" data-name="Path 1056" d="M97.879,29.107c4.222,8.241,9.565,9.488,9.565,9.488l-.037,11.141a7.292,7.292,0,0,0,7.292,7.316h17.142V42.933a8.912,8.912,0,0,0-8.914-8.909h-.007c-2.472,0-4.637,0-5.194-.028-1.471-.064-6.258.255-10.666-3.13-3.03-2.327-5.305-8.1-6.431-11.474a2.979,2.979,0,0,0-3.492-1.961" transform="translate(-63.647 -11.278)" fill="none" stroke="#fff" stroke-linejoin="round" stroke-width="2"></path><line id="Line_47" data-name="Line 47" y1="12.236" transform="translate(61.046 33.538)" fill="none" stroke="#fff" stroke-linejoin="round" stroke-width="2"></line><line id="Line_48" data-name="Line 48" y1="3.112" transform="translate(33.869)" fill="none" stroke="#fff" stroke-linejoin="round" stroke-width="2"></line><line id="Line_49" data-name="Line 49" x1="1.201" y1="2.87" transform="translate(30.177 0.781)" fill="none" stroke="#fff" stroke-linejoin="round" stroke-width="2"></line><line id="Line_50" data-name="Line 50" y1="2.838" x2="1.276" transform="translate(36.431 0.781)" fill="none" stroke="#fff" stroke-linejoin="round" stroke-width="2"></line><line id="Line_51" data-name="Line 51" x2="19.319" transform="translate(24.438 34.174)" fill="none" stroke="#fff" stroke-linejoin="round" stroke-width="2"></line></g></g></g></svg>