<svg xmlns="http://www.w3.org/2000/svg" width="100" height="100" viewBox="0 0 100 100"><g id="Group_4458" data-name="Group 4458" transform="translate(-744 -1074)"><circle id="Ellipse_129" data-name="Ellipse 129" cx="50" cy="50" r="50" transform="translate(744 1074)" fill="#6e180c"></circle><g id="Group_4326" data-name="Group 4326" transform="translate(767.771 1095.955)"><g id="Group_4327" data-name="Group 4327" transform="translate(1 1)"><circle id="Ellipse_130" data-name="Ellipse 130" cx="5.946" cy="5.946" r="5.946" transform="translate(19.692 12.51)" fill="none" stroke="#fff" stroke-width="2"></circle><line id="Line_52" data-name="Line 52" y2="13.646" transform="translate(17.475 40.444)" fill="none" stroke="#fff" stroke-linejoin="round" stroke-width="2"></line><line id="Line_53" data-name="Line 53" y2="13.646" transform="translate(33.394 40.444)" fill="none" stroke="#fff" stroke-linejoin="round" stroke-width="2"></line><line id="Line_54" data-name="Line 54" y2="13.646" transform="translate(45.67 40.444)" fill="none" stroke="#fff" stroke-linejoin="round" stroke-width="2"></line><line id="Line_55" data-name="Line 55" y2="13.646" transform="translate(4.832 40.444)" fill="none" stroke="#fff" stroke-linejoin="round" stroke-width="2"></line><circle id="Ellipse_131" data-name="Ellipse 131" cx="5.946" cy="5.946" r="5.946" transform="translate(33.722 12.51)" fill="none" stroke="#fff" stroke-linejoin="round" stroke-width="2"></circle><path id="Path_1057" data-name="Path 1057" d="M75.963,52.978h5.183a5.91,5.91,0,0,1,5.91,5.91V73.559H82.219" transform="translate(-36.596 -25.682)" fill="none" stroke="#fff" stroke-linejoin="round" stroke-width="2"></path><circle id="Ellipse_132" data-name="Ellipse 132" cx="5.946" cy="5.946" r="5.946" transform="translate(4.845 12.51)" fill="none" stroke="#fff" stroke-linejoin="round" stroke-width="2"></circle><circle id="Ellipse_133" data-name="Ellipse 133" cx="5.946" cy="5.946" r="5.946" transform="translate(27.115)" fill="none" stroke="#fff" stroke-linejoin="round" stroke-width="2"></circle><circle id="Ellipse_134" data-name="Ellipse 134" cx="5.946" cy="5.946" r="5.946" transform="translate(12.268)" fill="none" stroke="#fff" stroke-linejoin="round" stroke-width="2"></circle><path id="Path_1058" data-name="Path 1058" d="M12.618,52.978H6.91A5.91,5.91,0,0,0,1,58.888V73.559H5.837" transform="translate(-1 -25.682)" fill="none" stroke="#fff" stroke-linejoin="round" stroke-width="2"></path><path id="Path_1059" data-name="Path 1059" d="M25.839,79.772V58.888a5.91,5.91,0,0,1,5.91-5.91h2.432a4.251,4.251,0,1,0,8.5,0h2.432a5.91,5.91,0,0,1,5.91,5.91V79.772" transform="translate(-12.795 -25.682)" fill="none" stroke="#fff" stroke-linejoin="round" stroke-width="2"></path></g></g></g></svg>