<svg xmlns="http://www.w3.org/2000/svg" xmlns:xlink="http://www.w3.org/1999/xlink" width="74" height="74" viewBox="0 0 74 74"><defs><clipPath id="clip-path"><rect id="Rectangle_18151" data-name="Rectangle 18151" width="40.688" height="40.65" fill="#fff"></rect></clipPath></defs><g id="Group_4488" data-name="Group 4488" transform="translate(-646 -4129)"><circle id="Ellipse_170" data-name="Ellipse 170" cx="37" cy="37" r="37" transform="translate(646 4129)" fill="#ffbb3b"></circle><g id="Group_4447" data-name="Group 4447" transform="translate(663.319 4144.35)"><g id="Group_4446" data-name="Group 4446" clip-path="url(#clip-path)"><path id="Path_1251" data-name="Path 1251" d="M19.729,0H21c.071.076.17.06.259.077A5.219,5.219,0,0,1,25.49,3.711a5.219,5.219,0,0,1-1.267,5.5c-.142.152-.3.288-.465.446a1.512,1.512,0,0,0,.164.093,4.711,4.711,0,0,1,3.209,4.7c0,1.363.013,2.726-.008,4.088-.005.345.079.436.433.443,1.036.019,2.142-.265,3.018.658a4.856,4.856,0,0,1,2.147-3.328c-.114-.073-.19-.124-.268-.172a5.417,5.417,0,1,1,7.629-7.1,7.917,7.917,0,0,1,.607,1.916v1.191a13.864,13.864,0,0,1-.427,1.473,5.572,5.572,0,0,1-2.454,2.692c.128.1.233.176.335.257A4.466,4.466,0,0,1,39.982,20.1c.035,3.291.025,6.583.006,9.875a3.69,3.69,0,0,1-1.354,2.847c-.241.208-.211.342-.079.579.712,1.276,1.536,2.49,2.133,3.83v1.747a2.172,2.172,0,0,1-2.528,1.667H2.44c-.159,0-.318,0-.476,0A1.916,1.916,0,0,1,.18,39.3a3.642,3.642,0,0,1,.23-2.844c.6-1.028,1.18-2.066,1.788-3.088a.331.331,0,0,0-.083-.515,3.7,3.7,0,0,1-1.374-2.84C.72,26.7.71,23.393.747,20.086a4.453,4.453,0,0,1,1.822-3.507c.107-.086.256-.131.314-.276A5.475,5.475,0,0,1,.3,9.872a5.422,5.422,0,0,1,10.3-.069,5.494,5.494,0,0,1-2.584,6.521,4.9,4.9,0,0,1,2.137,3.326,2.681,2.681,0,0,1,2.308-.677c.211.007.426-.021.634.006.385.049.517-.062.509-.484-.028-1.481-.042-2.964,0-4.445a4.555,4.555,0,0,1,2.371-3.927,10.585,10.585,0,0,1,.981-.465l-.293-.279a5.418,5.418,0,0,1,.844-8.57A7.152,7.152,0,0,1,19.729,0M38.814,36.581c-.1-.181-.162-.308-.232-.431q-2.308-4-4.612-8c-.138-.241-.218-.362-.51-.149a2.545,2.545,0,0,1-1.536.45q-2.361,0-4.723,0a2.444,2.444,0,0,1-.856-.14,2.374,2.374,0,0,1-1.527-2.551,2.4,2.4,0,0,1,2.229-2.022c1.177-.03,2.355-.008,3.532-.014A.459.459,0,0,0,31,23c-.419-.735-.851-1.462-1.265-2.2a.866.866,0,0,0-.838-.478q-8.533.009-17.066,0a.864.864,0,0,0-.838.477c-.406.727-.83,1.443-1.244,2.166a.468.468,0,0,0,.441.758c1.111,0,2.223-.009,3.334,0a2.4,2.4,0,0,1,2.4,2.348,2.335,2.335,0,0,1-2.4,2.37c-1.574.014-3.149,0-4.723,0A2.61,2.61,0,0,1,7.267,28c-.249-.175-.34-.152-.492.113-1.548,2.708-3.111,5.406-4.667,8.109-.061.106-.181.2-.12.36Zm-6.853-14.79c.28-.486.559-.973.842-1.458s.632-.613,1-.4.431.608.169,1.068c-.614,1.08-1.242,2.152-1.844,3.238a1.519,1.519,0,0,1-1.457.839c-1.111-.009-2.223,0-3.334,0a1.056,1.056,0,0,0-1.184,1.006c-.006.61.441,1.009,1.164,1.012,1.482.007,2.964-.006,4.445.005a1.7,1.7,0,0,0,1.612-.949c.658-1.176,1.333-2.343,2-3.513.144-.252.277-.513.445-.749A.641.641,0,0,1,36.7,21.7a.665.665,0,0,1,.266.862,3.117,3.117,0,0,1-.167.315q-1,1.757-2,3.512c-.079.138-.151.249-.046.429q1.412,2.413,2.8,4.84c.127.223.217.157.344.019a2.533,2.533,0,0,0,.742-1.747c.006-3.254.028-6.509-.009-9.763a3.315,3.315,0,0,0-3.2-3.22,3.381,3.381,0,0,0-3.484,2.788,8.134,8.134,0,0,0,.021,2.055m-23.193,0a7.168,7.168,0,0,0-.035-2.325,3.377,3.377,0,0,0-6.641.737c-.021.595-.009,1.191-.009,1.786,0,2.554.005,5.107,0,7.661a2.82,2.82,0,0,0,.7,1.967c.173.2.274.27.442-.027q1.336-2.364,2.711-4.707a.428.428,0,0,0,0-.5c-.56-.959-1.106-1.926-1.655-2.89-.17-.3-.349-.593-.5-.9a.67.67,0,0,1,1.158-.674,3.424,3.424,0,0,1,.183.306c.754,1.32,1.511,2.638,2.26,3.961a1.651,1.651,0,0,0,1.552.911c.966-.007,1.932,0,2.9,0,.608,0,1.218.009,1.825-.017a.976.976,0,0,0,.913-.8A1.043,1.043,0,0,0,14,25.19a1.29,1.29,0,0,0-.617-.114c-1.125,0-2.249,0-3.374,0a1.37,1.37,0,0,1-1.287-.639c-.7-1.185-1.376-2.38-2.048-3.579a.658.658,0,0,1,.245-.927.667.667,0,0,1,.923.264c.08.121.146.251.219.377l.7,1.219m11.6-2.82c.78,0,1.561-.015,2.341.007.3.008.375-.077.372-.373-.016-1.4-.009-2.8-.006-4.206,0-.541.249-.838.683-.837s.668.29.669.843q0,1.766,0,3.532c0,1.063,0,1.054,1.049,1.041.246,0,.312-.073.31-.314-.011-1.508.013-3.016-.014-4.523a3.3,3.3,0,0,0-3.221-3.276q-2.18-.062-4.364,0a3.3,3.3,0,0,0-3.221,3.275c-.026,1.507,0,3.016-.014,4.523,0,.239.06.347.31.311a1.967,1.967,0,0,1,.277,0c.772,0,.772,0,.772-.756,0-1.309,0-2.619,0-3.928a.655.655,0,0,1,.744-.721c.379.037.6.321.6.793,0,1.428.008,2.857,0,4.285,0,.257.066.339.329.333.793-.017,1.587-.006,2.381-.006m-.051-9.488a4.064,4.064,0,1,0-4-4.233,4.06,4.06,0,0,0,4,4.233M35.26,15.577a4.058,4.058,0,1,0-4.052-4.063,4.066,4.066,0,0,0,4.052,4.063m-29.791,0A4.058,4.058,0,1,0,1.4,11.527a4.046,4.046,0,0,0,4.072,4.051m14.9,22.366H1.915c-.119,0-.238,0-.357,0a.151.151,0,0,0-.163.13A.879.879,0,0,0,2.3,39.3H38.417a1.8,1.8,0,0,0,.356-.016c.437-.089.633-.467.558-1.114-.049-.42-.395-.21-.588-.211q-9.187-.02-18.374-.011" transform="translate(-0.001 0.001)" fill="#fff"></path></g></g></g></svg>