<svg xmlns="http://www.w3.org/2000/svg" xmlns:xlink="http://www.w3.org/1999/xlink" width="74" height="74" viewBox="0 0 74 74"><defs><clipPath id="clip-path"><rect id="Rectangle_18149" data-name="Rectangle 18149" width="33.599" height="33.599" fill="none" stroke="#fff" stroke-width="1.4"></rect></clipPath></defs><g id="Group_4486" data-name="Group 4486" transform="translate(-233 -4129)"><circle id="Ellipse_168" data-name="Ellipse 168" cx="37" cy="37" r="37" transform="translate(233 4129)" fill="#1fb45c"></circle><g id="Group_4443" data-name="Group 4443" transform="translate(253 4149.201)"><g id="Group_4442" data-name="Group 4442" transform="translate(0 0)" clip-path="url(#clip-path)"><rect id="Rectangle_18148" data-name="Rectangle 18148" width="31.866" height="31.866" rx="4.599" transform="translate(0.866 0.867)" fill="none" stroke="#fff" stroke-linejoin="round" stroke-width="1.4"></rect><path id="Path_1243" data-name="Path 1243" d="M6.612,23.464,8.359,25.2l2.9-2.891" transform="translate(-0.881 -2.973)" fill="none" stroke="#fff" stroke-linejoin="round" stroke-width="1.4"></path><path id="Path_1244" data-name="Path 1244" d="M6.612,29.21l1.747,1.74,2.9-2.891" transform="translate(-0.881 -3.738)" fill="none" stroke="#fff" stroke-linejoin="round" stroke-width="1.4"></path><line id="Line_88" data-name="Line 88" x2="13.016" transform="translate(14.069 8.168)" fill="none" stroke="#fff" stroke-linejoin="round" stroke-width="1.4"></line><line id="Line_89" data-name="Line 89" x2="13.016" transform="translate(14.069 14.184)" fill="none" stroke="#fff" stroke-linejoin="round" stroke-width="1.4"></line><line id="Line_90" data-name="Line 90" x2="13.016" transform="translate(14.069 20.2)" fill="none" stroke="#fff" stroke-linejoin="round" stroke-width="1.4"></line><line id="Line_91" data-name="Line 91" x2="13.016" transform="translate(14.069 26.216)" fill="none" stroke="#fff" stroke-linejoin="round" stroke-width="1.4"></line><path id="Path_1245" data-name="Path 1245" d="M10.812,9.148A1.794,1.794,0,1,1,9.017,7.361,1.791,1.791,0,0,1,10.812,9.148Z" transform="translate(-0.963 -0.981)" fill="none" stroke="#fff" stroke-linejoin="round" stroke-width="1.4"></path><path id="Path_1246" data-name="Path 1246" d="M10.812,16.089A1.794,1.794,0,1,1,9.017,14.3,1.791,1.791,0,0,1,10.812,16.089Z" transform="translate(-0.963 -1.905)" fill="none" stroke="#fff" stroke-linejoin="round" stroke-width="1.4"></path></g></g></g></svg>