<svg xmlns="http://www.w3.org/2000/svg" xmlns:xlink="http://www.w3.org/1999/xlink" width="74" height="74" viewBox="0 0 74 74"><defs><clipPath id="clip-path"><rect id="Rectangle_18150" data-name="Rectangle 18150" width="41.867" height="33.881" fill="none" stroke="#fff" stroke-width="1.4"></rect></clipPath></defs><g id="Group_4487" data-name="Group 4487" transform="translate(-443 -4129)"><circle id="Ellipse_169" data-name="Ellipse 169" cx="37" cy="37" r="37" transform="translate(443 4129)" fill="#aec94c"></circle><g id="Group_4445" data-name="Group 4445" transform="translate(459.066 4151.123)"><g id="Group_4444" data-name="Group 4444" transform="translate(0 0)" clip-path="url(#clip-path)"><path id="Path_1247" data-name="Path 1247" d="M32.088,7.25V3.555A2.065,2.065,0,0,1,34.153,1.49H50.03A2.065,2.065,0,0,1,52.1,3.555V13.788a2.064,2.064,0,0,1-2.065,2.064h-3.97l-4.235,3.694V15.852H38.153" transform="translate(-10.695 -0.496)" fill="none" stroke="#fff" stroke-width="1.4"></path><line id="Line_92" data-name="Line 92" x1="11.979" transform="translate(25.809 6.523)" fill="none" stroke="#fff" stroke-width="1.4"></line><line id="Line_93" data-name="Line 93" x1="7.173" transform="translate(30.614 9.949)" fill="none" stroke="#fff" stroke-width="1.4"></line><path id="Path_1248" data-name="Path 1248" d="M17.008,7.65V2.383A1.683,1.683,0,0,0,15.326.7H2.383A1.683,1.683,0,0,0,.7,2.383v8.341a1.683,1.683,0,0,0,1.683,1.683l4.242.032.177,2.98,4-3.012" transform="translate(-0.233 -0.233)" fill="none" stroke="#fff" stroke-width="1.4"></path><line id="Line_94" data-name="Line 94" x2="7.764" transform="translate(2.961 4.974)" fill="none" stroke="#fff" stroke-width="1.4"></line><line id="Line_95" data-name="Line 95" x2="3.786" transform="translate(2.961 7.767)" fill="none" stroke="#fff" stroke-width="1.4"></line><path id="Path_1249" data-name="Path 1249" d="M32.487,19.193a5.837,5.837,0,1,1-5.837-5.837A5.837,5.837,0,0,1,32.487,19.193Z" transform="translate(-6.936 -4.451)" fill="none" stroke="#fff" stroke-width="1.4"></path><path id="Path_1250" data-name="Path 1250" d="M11.025,45.6V40.977a5.8,5.8,0,0,1,5.8-5.8H29.948a5.8,5.8,0,0,1,5.8,5.8V45.6" transform="translate(-3.675 -11.723)" fill="none" stroke="#fff" stroke-width="1.4"></path><line id="Line_96" data-name="Line 96" y1="4.098" transform="translate(13.138 29.782)" fill="none" stroke="#fff" stroke-width="1.4"></line></g></g></g></svg>