<svg xmlns="http://www.w3.org/2000/svg" id="Group_4423" data-name="Group 4423" width="28.937" height="28.939" viewBox="0 0 28.937 28.939"><g id="Group_4424" data-name="Group 4424"><path id="Path_1218" data-name="Path 1218" d="M2.261,0h9.325c.053.017.1.037.158.05a2.42,2.42,0,0,1,2,1.978c.176.913.276,1.842.371,2.768.031.3.139.353.412.353q5.862-.012,11.725,0a2.543,2.543,0,0,1,2.685,2.619q.01,9.281,0,18.562a2.573,2.573,0,0,1-2.693,2.611q-6.06,0-12.12,0c-.509,0-1.017.009-1.526,0A2.536,2.536,0,0,1,10.057,26.7q-.188-1.3-.324-2.6c-.025-.242-.092-.308-.336-.307-2.241.01-4.483.006-6.724.006A2.583,2.583,0,0,1,.5,22.747,3.142,3.142,0,0,1,0,21.533V2.261a.862.862,0,0,0,.045-.132A2.522,2.522,0,0,1,.94.581,3.021,3.021,0,0,1,2.261,0M12.936,27.241H26.172c.774,0,1.068-.3,1.069-1.079q0-9.125,0-18.25c0-.777-.3-1.073-1.074-1.073H14.809c-.441,0-.44,0-.386.428q.357,2.828.713,5.657c.405,3.259.8,6.518,1.216,9.776a1.069,1.069,0,0,1-.272.907c-.412.465-.815.939-1.221,1.409l-1.922,2.226M1.7,11.889q0,4.62,0,9.24a.862.862,0,0,0,.952.969q5.835,0,11.67.005c.2,0,.246-.041.22-.248-.334-2.642-.657-5.286-.986-7.929q-.7-5.659-1.41-11.318a.909.909,0,0,0-1.03-.912H2.721C2.005,1.7,1.7,2.01,1.7,2.734q0,4.577,0,9.155m11.977,11.9c-.751,0-1.436,0-2.121,0-.177,0-.14.11-.129.208.041.355.087.709.132,1.063.041.322.083.644.132,1.027l1.986-2.3" fill="#222"></path><path id="Path_1219" data-name="Path 1219" d="M242.383,158.218c.386,0,.772-.007,1.158,0,.16,0,.216-.043.207-.206-.012-.216-.009-.433,0-.65a.845.845,0,1,1,1.691.009,4.446,4.446,0,0,1,0,.565c-.019.215.042.289.273.284.753-.016,1.507-.01,2.26,0a.844.844,0,0,1,.589,1.461.793.793,0,0,1-.59.227.223.223,0,0,0-.257.19,10.179,10.179,0,0,1-1.816,3.354c-.122.151-.085.225.048.331q.859.689,1.707,1.392a.846.846,0,0,1-.336,1.5.87.87,0,0,1-.784-.221c-.575-.471-1.157-.935-1.721-1.42-.173-.148-.272-.139-.441.006-.579.5-1.166.983-1.769,1.45a.84.84,0,0,1-1.376-.465.856.856,0,0,1,.36-.889c.549-.444,1.089-.9,1.645-1.334.169-.132.165-.216.037-.375a10.141,10.141,0,0,1-1.786-3.307.251.251,0,0,0-.272-.21.839.839,0,0,1-.852-.863.853.853,0,0,1,.9-.824c.377-.006.753,0,1.13,0m.828,1.693a8.86,8.86,0,0,0,1.291,2.354c.077.1.123.078.189-.009a9.1,9.1,0,0,0,1.226-2.176c.046-.117.042-.171-.1-.171-.854,0-1.708,0-2.6,0" transform="translate(-223.343 -145.446)" fill="#222"></path><path id="Path_1220" data-name="Path 1220" d="M64.241,84.623c.245,0,.49,0,.734,0a.883.883,0,0,1,.969.791q.624,3.1,1.241,6.193.21,1.051.419,2.1a.85.85,0,1,1-1.66.341q-.247-1.2-.478-2.406c-.033-.173-.088-.249-.285-.245-.63.015-1.261.011-1.892,0-.161,0-.226.042-.257.207-.152.8-.317,1.6-.48,2.406a.851.851,0,1,1-1.661-.324q.824-4.12,1.65-8.24a.9.9,0,0,1,1.022-.828c.226,0,.452,0,.678,0M64.2,89.709c.242,0,.44-.011.636,0s.241-.04.2-.231c-.2-.983-.4-1.967-.6-2.952-.022-.106-.017-.216-.189-.218s-.172.1-.195.212c-.159.791-.321,1.581-.478,2.373-.051.257-.212.608-.1.752.137.183.5.03.726.061" transform="translate(-56.559 -78.632)" fill="#222"></path></g></svg>