<svg xmlns="http://www.w3.org/2000/svg" width="35.676" height="37.578" viewBox="0 0 35.676 37.578"><g id="Group_4428" data-name="Group 4428" transform="translate(-0.001 0)"><g id="Group_4429" data-name="Group 4429" transform="translate(0.001 0)"><path id="Path_1221" data-name="Path 1221" d="M3.307,22.525A7.553,7.553,0,0,1,3.7,9.786a5.712,5.712,0,0,1,1.158-.539,7.437,7.437,0,0,1,5.3.028,7.524,7.524,0,0,1,3.951,3.482.767.767,0,0,0,.133-.025q3.274-1.384,6.549-2.766c.212-.089.216-.2.16-.395a6.847,6.847,0,0,1-.25-2.83c.055-.408.138-.813.212-1.246L18.92,4.756c-.053.065-.093.11-.129.158a3.09,3.09,0,0,1-5.328-.442,2.927,2.927,0,0,1,.2-3.071,2.944,2.944,0,0,1,2.673-1.4,3.1,3.1,0,0,1,3.031,3.323c0,.1.035.277.1.3.62.247,1.25.468,1.861.691a.718.718,0,0,0,.077-.085c.047-.086.088-.175.137-.259A7.369,7.369,0,0,1,27.824.01a7.461,7.461,0,0,1,7.607,5.658c.1.4.165.812.245,1.218V8.06c-.1.5-.18,1.006-.307,1.5a7.452,7.452,0,0,1-6.528,5.4c-.867.048-1.744-.063-2.683-.1l-3.023,8.388a7.8,7.8,0,0,1,2.8,2.22c.124-.077.228-.138.329-.2,1.025-.665,2.045-1.338,3.078-1.992a.406.406,0,0,0,.207-.557,3.07,3.07,0,0,1,1.6-3.575,3.127,3.127,0,0,1,3.738.73,3.751,3.751,0,0,1,.788,1.78v.587a.581.581,0,0,0-.058.13,3.09,3.09,0,0,1-5.083,1.914.334.334,0,0,0-.474-.014c-1.071.707-2.15,1.4-3.226,2.1a2.18,2.18,0,0,0-.193.158l.1-.011a19.914,19.914,0,0,1,.686,2.53,7.411,7.411,0,0,1-4.961,8.095,17.482,17.482,0,0,1-1.844.443H19.379a1.654,1.654,0,0,0-.243-.069,7.311,7.311,0,0,1-5.349-3.3c-.371-.551-.639-1.172-.976-1.8-.8.191-1.642.405-2.488.584-.267.056-.341.164-.367.428a3.108,3.108,0,0,1-3.749,2.821,3.122,3.122,0,0,1-.593-5.91,2.935,2.935,0,0,1,3.55.825,1.175,1.175,0,0,0,1.581.484c.6-.191,1.223-.305,1.846-.456a7.565,7.565,0,0,1,1.935-6.247l-2.465-2.71a7.549,7.549,0,0,1-7.672.9M21.514,10.993l-6.888,2.923a7.588,7.588,0,0,1-1.65,7.482l2.467,2.713a7.487,7.487,0,0,1,6.532-1.294l3.062-8.49a7.712,7.712,0,0,1-3.522-3.334m11.365.586a6.251,6.251,0,1,0-9.853-7.664,6.057,6.057,0,0,0,.427,7.611c.645-1.257.768-1.382,2.436-2.473-1.127-1.761-1.084-3.322.121-4.434A3.113,3.113,0,0,1,31.2,6.211a3.165,3.165,0,0,1-.809,2.858,4.587,4.587,0,0,1,2.488,2.511M24.755,34.121a6.256,6.256,0,1,0-9.615-8,6.131,6.131,0,0,0,.165,7.972,4.529,4.529,0,0,1,2.442-2.459c-1.162-1.809-1.1-3.414.166-4.507a3.108,3.108,0,0,1,4.206.022c1.239,1.1,1.3,2.719.156,4.457a4.906,4.906,0,0,1,2.48,2.518M5.208,17.832a3.163,3.163,0,0,1,.1-4.425,3.126,3.126,0,0,1,3.976-.294A3.062,3.062,0,0,1,10.519,15a3.156,3.156,0,0,1-.812,2.835,4.618,4.618,0,0,1,2.49,2.514,6.23,6.23,0,0,0-.661-8.864,6.309,6.309,0,0,0-8.964.888,6.139,6.139,0,0,0,.194,7.915,4.687,4.687,0,0,1,2.442-2.46m5.925,3.473a2.916,2.916,0,0,0-2.321-2.392,8.4,8.4,0,0,0-2.688,0,2.813,2.813,0,0,0-2.249,2.166.408.408,0,0,0,.118.351,6.12,6.12,0,0,0,7.14-.13M20,36.316a6.26,6.26,0,0,0,3.451-1.058.33.33,0,0,0,.146-.428A3.114,3.114,0,0,0,20.885,32.6a16.5,16.5,0,0,0-1.758,0,3.122,3.122,0,0,0-2.7,2.151.416.416,0,0,0,.218.562,6.407,6.407,0,0,0,3.362,1m8.223-26.249c-.342,0-.611-.007-.88,0A3.034,3.034,0,0,0,24.6,12.287a.453.453,0,0,0,.128.383,6.224,6.224,0,0,0,6.836.029.333.333,0,0,0,.159-.426A3.1,3.1,0,0,0,30.648,10.7a3.319,3.319,0,0,0-2.42-.631M4.989,33.182A1.871,1.871,0,1,0,6.86,31.325a1.865,1.865,0,0,0-1.871,1.856m27.573-9.4a1.872,1.872,0,1,0-1.884-1.842,1.862,1.862,0,0,0,1.884,1.842M16.244,4.984a1.872,1.872,0,1,0-1.858-1.871,1.872,1.872,0,0,0,1.858,1.871M9.328,15.629a1.846,1.846,0,0,0-1.884-1.84,1.864,1.864,0,1,0,1.884,1.84M19.989,27.581a1.853,1.853,0,1,0,1.875,1.848,1.851,1.851,0,0,0-1.875-1.848m8.2-22.521a1.826,1.826,0,0,0-1.872,1.805A1.841,1.841,0,0,0,30,6.887,1.815,1.815,0,0,0,28.188,5.06" transform="translate(-0.001 0)" fill="#222"></path></g></g></svg>