<svg xmlns="http://www.w3.org/2000/svg" xmlns:xlink="http://www.w3.org/1999/xlink" width="74" height="74" viewBox="0 0 74 74"><defs><clipPath id="clip-path"><rect id="Rectangle_18152" data-name="Rectangle 18152" width="35.334" height="35.337" fill="#fff"></rect></clipPath></defs><g id="Group_4489" data-name="Group 4489" transform="translate(-856 -4129)"><circle id="Ellipse_171" data-name="Ellipse 171" cx="37" cy="37" r="37" transform="translate(856 4129)" fill="#ef8637"></circle><g id="Group_4449" data-name="Group 4449" transform="translate(875.333 4146.007)"><g id="Group_4448" data-name="Group 4448" clip-path="url(#clip-path)"><path id="Path_1252" data-name="Path 1252" d="M19.395,0h.069c.076.085.148.174.228.254l9.659,9.66a1.334,1.334,0,0,0,.147.145c.173.125.157.222,0,.371-.587.568-1.159,1.15-1.734,1.729a.468.468,0,0,0-.188.263c.958,0,1.9.01,2.837-.006a.512.512,0,0,1,.551.331c.663,1.363,1.345,2.716,2.026,4.07q1.167,2.323,2.341,4.642v5.451c-.575,0-1.151.018-1.725-.007-.3-.013-.355.084-.354.364.011,2.553,0,5.106.015,7.659,0,.335-.083.411-.413.411q-15.18-.015-30.361,0c-.349,0-.431-.084-.429-.43.016-2.553,0-5.106.015-7.659,0-.264-.058-.359-.337-.344-.47.025-.943-.007-1.414.012C.083,26.926,0,26.87,0,26.6c.014-1.621.008-3.243,0-4.865a.987.987,0,0,1,.112-.46q2.153-4.3,4.3-8.6a.4.4,0,0,1,.42-.259c1.081.011,2.162.006,3.243,0a.36.36,0,0,0,.346-.1c-.146-.119-.281-.243-.429-.348-.272-.191-.2-.334.007-.544Q13.582,5.862,19.151.282c.087-.088.2-.156.244-.282M17.671,33.259q6.57,0,13.14.008c.323,0,.391-.093.389-.4q-.021-2.811,0-5.621c0-.268-.065-.343-.339-.342q-13.192.011-26.383,0c-.28,0-.337.083-.336.345q.016,2.811,0,5.621c0,.311.074.4.392.4q6.57-.017,13.14-.008m.311-16.7c.736,0,1.471,0,2.207,0a.538.538,0,0,0,.423-.173q2.957-2.967,5.926-5.922c.186-.185.176-.277,0-.456Q23.088,6.586,19.659,3.14c-.162-.163-.251-.191-.43-.012q-4.172,4.19-8.362,8.363c-.167.166-.182.256-.006.43q2.241,2.22,4.463,4.46a.574.574,0,0,0,.452.185c.735-.009,1.471,0,2.207,0m-5.388,0c-.677-.674-1.288-1.275-1.889-1.886a.575.575,0,0,0-.452-.188q-2.07.01-4.14,0a.4.4,0,0,0-.421.252Q4.288,17.58,2.859,20.41c-.121.239-.094.3.184.3q14.628-.008,29.255,0c.281,0,.3-.062.182-.3q-1.427-2.829-2.834-5.669a.4.4,0,0,0-.421-.252q-1.759.016-3.519,0a.6.6,0,0,0-.479.2c-.529.544-1.072,1.075-1.605,1.614-.065.066-.179.11-.164.256,1.083,0,2.163.006,3.242,0,.225,0,.3.061.289.288-.017.471-.024.944,0,1.414.017.3-.062.382-.373.381-3.68-.012-7.36-.008-11.04-.008-2.3,0-4.6,0-6.9.006-.249,0-.343-.048-.33-.318.024-.482.024-.967,0-1.448-.014-.275.09-.318.334-.315.908.013,1.817.005,2.725.005H12.6m5.109,6.21H5.905c-1.15,0-2.3.009-3.45-.006-.287,0-.412.044-.386.369.033.411.008.827.008,1.241,0,.464,0,.464.447.464H32.816a1.085,1.085,0,0,1,.172,0c.239.039.285-.079.279-.293-.014-.471-.028-.945,0-1.414.023-.324-.1-.369-.387-.369q-7.59.013-15.18.006" transform="translate(0)" fill="#fff"></path><path id="Path_1253" data-name="Path 1253" d="M164.738,100.281c-.1,0-.133-.065-.18-.111-.829-.827-1.655-1.658-2.488-2.482-.124-.122-.143-.2-.007-.33q.585-.56,1.146-1.144c.126-.131.205-.13.329,0,.317.332.657.643.968.981.157.169.25.159.408,0,.984-1,1.984-1.979,2.964-2.981.194-.2.3-.19.479.005.334.363.689.707,1.046,1.049.133.127.16.209.013.355q-2.273,2.258-4.535,4.528c-.048.048-.1.092-.142.131" transform="translate(-147.038 -85.396)" fill="#fff"></path></g></g></g></svg>