<svg xmlns="http://www.w3.org/2000/svg" width="30.726" height="36.572" viewBox="0 0 30.726 36.572"><g id="Group_4435" data-name="Group 4435" transform="translate(0 -0.003)"><path id="Path_1230" data-name="Path 1230" d="M30.079,40.072,31.81,41.8l2.449-2.449" transform="translate(-12.234 -16.096)" fill="none" stroke="#222" stroke-width="1.4"></path><g id="Group_4434" data-name="Group 4434" transform="translate(0.7 0.7)"><g id="Group_4436" data-name="Group 4436"><path id="Path_1231" data-name="Path 1231" d="M28.438,10.1V6.629c0-.229-.049-.3-.292-.328A24.675,24.675,0,0,1,14.889.858c-.244-.194-.38-.222-.642-.009A24.723,24.723,0,0,1,1.2,6.295c-.492.054-.492.054-.492.549V13.21H.7v5.363a14.6,14.6,0,0,0,.588,4.3A18.6,18.6,0,0,0,14.316,35.84a.91.91,0,0,0,.541-.017,18.563,18.563,0,0,0,9.577-6.348" transform="translate(-0.7 -0.7)" fill="none" stroke="#222" stroke-linejoin="round" stroke-width="1.4"></path><path id="Path_1232" data-name="Path 1232" d="M10.851,44.806a9.347,9.347,0,0,1-4.009-5.691" transform="translate(-3.258 -16.697)" fill="none" stroke="#222" stroke-width="1.4"></path><path id="Path_1233" data-name="Path 1233" d="M22.867,39.454V20.493h13.49l2.9,3.307v7.561" transform="translate(-9.931 -8.942)" fill="none" stroke="#222" stroke-width="1.4"></path><path id="Path_1234" data-name="Path 1234" d="M45.668,20.492v3.454h3.083" transform="translate(-19.425 -8.942)" fill="none" stroke="#222" stroke-width="1.4"></path><line id="Line_82" data-name="Line 82" x2="8.035" transform="translate(16.737 17.136)" fill="none" stroke="#222" stroke-width="1.4"></line><line id="Line_83" data-name="Line 83" x2="8.035" transform="translate(16.737 19.684)" fill="none" stroke="#222" stroke-width="1.4"></line></g></g></g></svg>