<svg xmlns="http://www.w3.org/2000/svg" xmlns:xlink="http://www.w3.org/1999/xlink" width="38.711" height="33.929" viewBox="0 0 38.711 33.929"><defs><clipPath id="clip-path"><rect id="Rectangle_18130" data-name="Rectangle 18130" width="38.711" height="33.929" transform="translate(0 0)" fill="none" stroke="#222" stroke-width="1.4"></rect></clipPath></defs><g id="Group_4414" data-name="Group 4414" transform="translate(0 0)"><g id="Group_4413" data-name="Group 4413" clip-path="url(#clip-path)"><path id="Path_1204" data-name="Path 1204" d="M31.064,12.479l.072-1.921a.654.654,0,0,0-.641-.666l-2.349-.043A9.091,9.091,0,0,0,27.46,8.1l1.692-1.631a.654.654,0,0,0,.017-.925L26.447,2.724a.654.654,0,0,0-.924-.017L23.83,4.338a9.044,9.044,0,0,0-1.718-.75l.043-2.349a.654.654,0,0,0-.641-.666L17.592.5a.654.654,0,0,0-.666.641l-.043,2.349a9.021,9.021,0,0,0-1.744.687L13.507,2.485a.654.654,0,0,0-.924-.017L9.758,5.19a.654.654,0,0,0-.017.924l1.632,1.693a9.112,9.112,0,0,0-.751,1.718L8.273,9.482a.652.652,0,0,0-.665.641l-.073,1.922" fill="none" stroke="#222" stroke-width="1.4"></path><path id="Path_1205" data-name="Path 1205" d="M31.064,12.479l.072-1.921a.654.654,0,0,0-.641-.666l-2.349-.043A9.091,9.091,0,0,0,27.46,8.1l1.692-1.631a.654.654,0,0,0,.017-.925L26.447,2.724a.654.654,0,0,0-.924-.017L23.83,4.338a9.044,9.044,0,0,0-1.718-.75l.043-2.349a.654.654,0,0,0-.641-.666L17.592.5a.654.654,0,0,0-.666.641l-.043,2.349a9.021,9.021,0,0,0-1.744.687L13.507,2.485a.654.654,0,0,0-.924-.017L9.758,5.19a.654.654,0,0,0-.017.924l1.632,1.693a9.112,9.112,0,0,0-.751,1.718L8.273,9.482a.652.652,0,0,0-.665.641l-.073,1.922" fill="none" stroke="#222" stroke-width="1.4"></path><path id="Path_1206" data-name="Path 1206" d="M19.555,13.87A4.336,4.336,0,1,1,15.212,18.2a4.335,4.335,0,0,1,4.343-4.328" fill="none" stroke="#222" stroke-width="1.4"></path><path id="Path_1207" data-name="Path 1207" d="M19.555,13.87A4.336,4.336,0,1,1,15.212,18.2,4.335,4.335,0,0,1,19.555,13.87Z" fill="none" stroke="#222" stroke-width="1.4"></path><path id="Path_1208" data-name="Path 1208" d="M13.788,12.218a5.549,5.549,0,1,1,11.1.02" fill="none" stroke="#222" stroke-width="1.4"></path><path id="Path_1209" data-name="Path 1209" d="M13.788,12.218a5.549,5.549,0,1,1,11.1.02" fill="none" stroke="#222" stroke-width="1.4"></path><path id="Path_1210" data-name="Path 1210" d="M28.129,33.63V31.119a6.009,6.009,0,0,0-6-6.021h0l-5.569-.01a6.011,6.011,0,0,0-6.021,6h0V33.73" fill="none" stroke="#222" stroke-width="1.4"></path><path id="Path_1211" data-name="Path 1211" d="M8.2,14.534a3.706,3.706,0,1,1-3.712,3.7,3.705,3.705,0,0,1,3.712-3.7" fill="none" stroke="#222" stroke-width="1.4"></path><path id="Path_1212" data-name="Path 1212" d="M8.2,14.534a3.706,3.706,0,1,1-3.712,3.7A3.705,3.705,0,0,1,8.2,14.534Z" fill="none" stroke="#222" stroke-width="1.4"></path><path id="Path_1213" data-name="Path 1213" d="M10.406,24.13h0l-4.759-.008A5.136,5.136,0,0,0,.5,29.249h0V29.8" fill="none" stroke="#222" stroke-width="1.4"></path><path id="Path_1214" data-name="Path 1214" d="M30.508,14.313a3.706,3.706,0,1,0,3.712,3.7,3.705,3.705,0,0,0-3.712-3.7" fill="none" stroke="#222" stroke-width="1.4"></path><path id="Path_1215" data-name="Path 1215" d="M30.508,14.313a3.706,3.706,0,1,0,3.712,3.7A3.705,3.705,0,0,0,30.508,14.313Z" fill="none" stroke="#222" stroke-width="1.4"></path><path id="Path_1216" data-name="Path 1216" d="M28.305,23.909h0l4.759-.008a5.136,5.136,0,0,1,5.145,5.127h0v.548" fill="none" stroke="#222" stroke-width="1.4"></path><path id="Path_1217" data-name="Path 1217" d="M16.153,30.552l2.514,2.66,4.273-4.273" fill="none" stroke="#222" stroke-width="1.4"></path></g></g></svg>