<svg xmlns="http://www.w3.org/2000/svg" xmlns:xlink="http://www.w3.org/1999/xlink" width="74" height="74" viewBox="0 0 74 74"><defs><clipPath id="clip-path"><rect id="Rectangle_18153" data-name="Rectangle 18153" width="32.223" height="32.081" fill="#fff"></rect></clipPath></defs><g id="Group_4490" data-name="Group 4490" transform="translate(-1066 -4129)"><circle id="Ellipse_172" data-name="Ellipse 172" cx="37" cy="37" r="37" transform="translate(1066 4129)" fill="#ed3d48"></circle><g id="Group_4451" data-name="Group 4451" transform="translate(1086.888 4150.961)"><g id="Group_4450" data-name="Group 4450" clip-path="url(#clip-path)"><path id="Path_1254" data-name="Path 1254" d="M.069,84c.213-.261.133-.594.215-.889a5.551,5.551,0,0,1,5.069-4.122,5.42,5.42,0,0,1,5.588,3.771c.228.724.472.667.993.365.76-.44,1.565-.8,2.328-1.239a3.377,3.377,0,0,1,2.933-.411c.434.158.492-.136.633-.355q2.33-3.633,4.651-7.271a1.834,1.834,0,0,1,.535-.657,1.018,1.018,0,0,1,1.367.145,1.119,1.119,0,0,1,.07,1.5q-1.933,3.039-3.877,6.072c-.218.341-.415.7-.656,1.02A2.5,2.5,0,0,0,19.37,84.2a2.943,2.943,0,0,1-1.689,3.239c-1.968,1.057-3.939,2.107-5.923,3.132a.814.814,0,0,0-.521.886c.036.521-.029,1.05.017,1.57a1.468,1.468,0,0,1-.753,1.545H9.929a1.336,1.336,0,0,1-.865-1.47c.039-.5-.007-1,.012-1.5.014-.351-.053-.536-.459-.641a3.96,3.96,0,0,1-2.5-1.985C5.7,88.235,5.265,87.5,4.847,86.75a1.143,1.143,0,0,1,.293-1.682,1.156,1.156,0,0,1,1.605.584c.447.757.863,1.532,1.318,2.284a1.851,1.851,0,0,0,2.638.732q2.9-1.526,5.788-3.077c.719-.385.934-.916.638-1.508s-.924-.735-1.653-.357c-1.5.778-2.986,1.568-4.482,2.345-1.156.6-1.929.147-1.912-1.143A3.881,3.881,0,0,0,8.6,82.808a3.365,3.365,0,0,0-3.746-1.541,3.272,3.272,0,0,0-2.533,3.22q-.039,4.249,0,8.5A1.556,1.556,0,0,1,1.5,94.574c-.476,0-1.139.186-1.377-.052s-.052-.9-.052-1.377Z" transform="translate(0 -62.562)" fill="#fff"></path><path id="Path_1255" data-name="Path 1255" d="M68.646,13.433a11.051,11.051,0,0,1-.418,1.276,3.972,3.972,0,0,1-3.534,2.386,12.889,12.889,0,0,1-1.571.006,1.108,1.108,0,0,1-1.191-1.071c-.016-.639.452-1.083,1.215-1.121.5-.025,1,.01,1.5-.023a1.759,1.759,0,0,0,1.737-1.74q.045-4.572,0-9.145a1.771,1.771,0,0,0-1.64-1.769,5.378,5.378,0,0,0-.783-.038q-8.4,0-16.79,0c-1.808,0-2.439.619-2.489,2.43-.024.86-.389,1.291-1.088,1.285s-1.081-.474-1.1-1.3c-.048-2.473.9-3.7,3.569-4.612H65.073a4.9,4.9,0,0,1,2.634,1.534,5.574,5.574,0,0,1,.939,2.182Z" transform="translate(-36.422)" fill="#fff"></path><path id="Path_1256" data-name="Path 1256" d="M15.391,60.3a4,4,0,0,1-4.036-4.081,4.053,4.053,0,0,1,4.093-4.053,4.127,4.127,0,0,1,4.066,4.112A4.061,4.061,0,0,1,15.391,60.3m.02-2.162a1.918,1.918,0,0,0,1.9-1.915,1.9,1.9,0,0,0-3.792-.012,1.921,1.921,0,0,0,1.89,1.927" transform="translate(-9.733 -44.711)" fill="#fff"></path><path id="Path_1257" data-name="Path 1257" d="M91.463,44.089c-1.9,0-3.808,0-5.712,0-.828,0-1.295-.4-1.293-1.086s.468-1.069,1.308-1.07q5.747-.006,11.495,0c.834,0,1.319.388,1.341,1.05.022.682-.49,1.106-1.356,1.107q-2.892.006-5.783,0" transform="translate(-72.389 -35.936)" fill="#fff"></path><path id="Path_1258" data-name="Path 1258" d="M88.528,75.179c-.95,0-1.9.011-2.851,0-.785-.011-1.224-.414-1.22-1.08a1.089,1.089,0,0,1,1.231-1.088q2.851-.018,5.7,0a1.089,1.089,0,0,1,1.22,1.1c0,.653-.449,1.059-1.231,1.07-.95.013-1.9,0-2.851,0" transform="translate(-72.388 -62.566)" fill="#fff"></path></g></g></g></svg>